<?xml version="1.0" encoding="utf-8"?>
<!-- Generator: Adobe Illustrator 19.2.0, SVG Export Plug-In . SVG Version: 6.00 Build 0)  -->
<svg version="1.1" id="Layer_1" xmlns="http://www.w3.org/2000/svg" xmlns:xlink="http://www.w3.org/1999/xlink" x="0px" y="0px"
	 viewBox="0 0 1024 1024" style="enable-background:new 0 0 1024 1024;" xml:space="preserve">
<style type="text/css">
	.st0{fill:#AC2B37;}
</style>
<g id="x88n2s.tif">
	<g>
		<path class="st0" d="M508.6,886.4c-31.8-5.8-66.6-12.7-101.6-18.2c-14.6-2.3-14.6-9.1-12-20.9c9.9-44.1,55.2-82.3,104.9-87.4
			c47.1-4.8,96.9,23.6,117.1,66.7c17,36.5,16.5,38.5-23,46.3C567.1,878.3,539.8,881.5,508.6,886.4z"/>
		<path class="st0" d="M887.2,508.4c-6.5,34.8-13,69.6-19.4,104.4c-1.6,8.8-3.7,14.7-15.7,12c-52.2-11.6-92.2-60.8-92.7-115.3
			c-0.4-53.6,39.8-105.4,90.4-117.1c10.2-2.4,15.2,0.2,17.4,10.2c3.5,15.7,8.5,31.1,11,47c3.1,19.2,4.2,38.6,6.2,58
			C885.4,507.9,886.3,508.2,887.2,508.4z"/>
		<path class="st0" d="M177.5,675.7c47.4-36.6,114.6-32.1,156.4,9c41.8,41.2,46.9,107.6,10.2,156.2
			C269.2,805.9,215.3,749.7,177.5,675.7z"/>
		<path class="st0" d="M677.7,841.8c-38.5-48.4-31.3-118.9,14.5-160.7c41.7-38,112.5-40.4,150.6-4.1
			C808.2,751.7,752.1,805,677.7,841.8z"/>
		<path class="st0" d="M156.9,392c55.3,3.5,101,52.9,102.9,109.5c2.2,65.5-39.3,116.3-102.7,124.2C130.4,547.7,131,469.9,156.9,392z
			"/>
		<path class="st0" d="M178.5,343.2c29.3-66.7,91.2-129.1,164.5-165.7c35.4,35.3,35.3,104.3-1.5,147.2
			C299.4,373.8,228.8,381.8,178.5,343.2z"/>
		<path class="st0" d="M627,156.4c-4.7,55.2-52.4,99.7-107.9,103.2c-66,4.3-119-43-126.9-102.5C470.5,131,548.6,131.2,627,156.4z"/>
		<path class="st0" d="M677.5,176.3c72.4,37.6,126.8,93,165.1,164.7c-38.2,37.3-109.9,33.8-153.3-6.3
			C645.5,294.3,639.7,221.9,677.5,176.3z"/>
		<path class="st0" d="M672.9,378.6c-0.3,19.7-13.6,32.2-33.7,31.8c-19.9-0.5-33.3-14.4-32.6-33.5c0.7-17.9,17.3-33.8,34.3-32.9
			C659.5,344.9,673.1,359.6,672.9,378.6z"/>
		<path class="st0" d="M510.9,361c-20.3,0.1-35-13.9-34.7-33.2c0.3-16.9,16.8-33.3,33.7-33.5c17.8-0.1,32.5,14.8,33,33.5
			C543.5,346.8,529.9,360.9,510.9,361z"/>
		<path class="st0" d="M347.1,378.6c-0.1-19.5,12.9-32.9,32.1-33c19.9-0.2,35,14.5,34.6,33.5c-0.4,17.3-16.9,33.5-34,33.2
			C361.5,411.9,347.2,397.2,347.1,378.6z"/>
		<path class="st0" d="M347.1,638.4c0-19.3,13.8-33.4,32.6-33.3c18.1,0.1,34,15.5,34,33.1c0,17.8-15.7,33.4-33.7,33.4
			C361.4,671.6,347.1,657.2,347.1,638.4z"/>
		<path class="st0" d="M673.2,639.2c-0.1,19-14.5,33.1-33.3,32.5c-19.7-0.6-32.8-14.1-32.4-33.4c0.4-19.1,14.7-33.2,33.3-33
			C659.2,605.5,673.3,620.2,673.2,639.2z"/>
		<path class="st0" d="M328.8,475.9c19.7,0,33.1,13.1,33.3,32.4c0.1,18.9-14.1,33.4-33,33.6c-17.8,0.2-33.6-15.4-33.8-33.3
			C295.1,491,310.4,475.9,328.8,475.9z"/>
		<path class="st0" d="M657.8,508.7c0-20.3,12.5-32.8,32.4-32.7c20.4,0.1,32.6,12.3,32.7,32.7c0.1,19.3-13.9,33.6-32.7,33.6
			C671.3,542.3,657.8,528.2,657.8,508.7z"/>
		<path class="st0" d="M510.3,657.8c19.7,0,33,13.2,32.8,32.5c-0.2,19.4-13.7,32.6-33.3,32.5c-18.4-0.1-33.8-15.4-33.4-33.1
			C476.7,671,490.8,657.8,510.3,657.8z"/>
	</g>
</g>
</svg>
