<?xml version="1.0" encoding="utf-8"?>
<!-- Generator: Adobe Illustrator 19.2.0, SVG Export Plug-In . SVG Version: 6.00 Build 0)  -->
<svg version="1.1" id="Layer_1" xmlns="http://www.w3.org/2000/svg" xmlns:xlink="http://www.w3.org/1999/xlink" x="0px" y="0px"
	 viewBox="0 0 1024 1024" style="enable-background:new 0 0 1024 1024;" xml:space="preserve">
<style type="text/css">
	.st0{fill:#AC2B37;}
</style>
<g>
	<path class="st0" d="M468.4,478.4v66.8l49.3,8.5v-16.3v-6.2v-17v-3.7v-18v-6.2v-16.3L468.4,478.4z M501.5,529.1l-18.7-1.8v-35
		l18-1.9v7.1l-11,0.8v8.1l10.2-0.3v7l-10.2-0.1v8.3l11.7,0.7V529.1z"/>
	<path class="st0" d="M552,486.2h-29.7v6.2h1.3c0.3,0,0.6,0.1,0.8,0.3l4.4,4.4c0.3,0.3,0.3,0.8,0,1.1l-1.6,1.6
		c-0.3,0.3-0.8,0.3-1.1,0l-2-2c0,0-0.1-0.1-0.2-0.1h-1.6v11.9c3.1,2.8,5.6,4.8,4.8,5.6c-0.5,0.5-2.5-0.3-4.8-1.8v12.1h0.8
		c5.5-4.1,10-11.6,11.3-10.3c1.6,1.5-9.1,15.5-10.4,15.7h-1.7v6.2H552c2.4,0,4.4-2,4.4-4.4v-42.4C556.4,488.2,554.4,486.2,552,486.2
		z M550.2,525.7v4.3c0,0.6-0.5,1.1-1.1,1.1h-4.3H543H538c-0.3,0-0.6-0.1-0.8-0.3l-4.4-4.4c-0.3-0.3-0.3-0.8,0-1.1l1.6-1.6
		c0.3-0.3,0.8-0.3,1.1,0l2,2c0,0,0.1,0.1,0.2,0.1h7.1v-6.2c-4.1-5.5-11.6-10-10.3-11.3c1.5-1.6,15.5,9.1,15.7,10.4V525.7z
		 M550.2,497.8v1.8v4.9c0,0.3-0.1,0.6-0.3,0.8l-4.4,4.4c-0.3,0.3-0.8,0.3-1.1,0l-1.6-1.6c-0.3-0.3-0.3-0.8,0-1.1l2-2
		c0,0,0.1-0.1,0.1-0.2v-7.1h-6.2c-5.5,4.1-10,11.6-11.3,10.3c-1.6-1.5,9.1-15.5,10.4-15.7h7.2h4.3c0.6,0,1.1,0.5,1.1,1.1V497.8z"/>
</g>
<g>
	<path class="st0" d="M112.4,208.2v607.1l448.2,77.5V744.2v-56.5V533.5v-33.6v-164v-56.5V130.7L112.4,208.2z M413.6,669.3
		l-170.1-15.9V334.9L407,317.4v64.4l-99.7,7v73.7l92.7-2.4v63.9l-92.7-1v75.8l106.2,6V669.3z"/>
	<path class="st0" d="M872.4,279.3H602.8v56.5h11.5c2.7,0,5.2,1.1,7.1,2.9l40.3,40.3c2.7,2.7,2.7,7.2,0,9.9l-14.6,14.6
		c-2.7,2.7-7.2,2.7-9.9,0L619,385.6c-0.4-0.4-0.9-0.6-1.4-0.6h-14.8v108.4c27.7,25,51.2,43.6,44.1,51.2c-4.6,4.9-22.5-3.1-44.1-16.2
		v110h6.9c50.1-37.3,90.9-105.1,103.2-93.7c14.4,13.5-82.5,141.2-94.4,142.9h-15.6v56.5h269.6c22.1,0,40-17.9,40-40v-385
		C912.4,297.2,894.5,279.3,872.4,279.3z M855.8,638.5v39.2c0,5.5-4.5,10-10,10h-39.2h-16.3h-44.8c-2.7,0-5.2-1.1-7.1-2.9l-40.3-40.3
		c-2.7-2.7-2.7-7.2,0-9.9l14.6-14.6c2.7-2.7,7.2-2.7,9.9,0l18.2,17.9c0.4,0.4,0.9,0.6,1.4,0.6h64.4V582
		c-37.3-50.1-105.1-90.9-93.7-103.2c13.5-14.4,141.2,82.5,142.9,94.4V638.5z M855.8,385.1v16.3v44.8c0,2.7-1.1,5.2-2.9,7.1
		l-40.3,40.3c-2.7,2.7-7.2,2.7-9.9,0l-14.6-14.6c-2.7-2.7-2.7-7.2,0-9.9l17.9-18.2c0.4-0.4,0.6-0.9,0.6-1.4v-64.4h-56.5
		c-50.1,37.3-90.9,105.1-103.2,93.7c-14.4-13.5,82.5-141.2,94.4-142.9h65.2h39.2c5.5,0,10,4.5,10,10V385.1z"/>
</g>
</svg>
