<?xml version="1.0" encoding="utf-8"?>
<!-- Generator: Adobe Illustrator 19.1.0, SVG Export Plug-In . SVG Version: 6.00 Build 0)  -->
<svg version="1.1" id="Layer_1" xmlns="http://www.w3.org/2000/svg" xmlns:xlink="http://www.w3.org/1999/xlink" x="0px" y="0px"
	 viewBox="0 0 431 36" style="enable-background:new 0 0 431 36;" xml:space="preserve">
<style type="text/css">
	.st0{fill:#FFFFFF;}
</style>
<g id="XMLID_1903_">
	<g id="XMLID_2091_">
		<path id="XMLID_2222_" class="st0" d="M18.1,0c-9.9,0-18,8.1-18,18c0,9.9,8.1,18,18,18c9.9,0,18-8.1,18-18C36.1,8.1,28,0,18.1,0z
			 M18.1,35.1C8.6,35.1,0.9,27.5,0.9,18c0-9.5,7.7-17.1,17.1-17.1c9.5,0,17.1,7.7,17.1,17.1C35.2,27.5,27.5,35.1,18.1,35.1z"/>
		<g id="XMLID_2201_">
			<path id="XMLID_2219_" class="st0" d="M11.8,4.4c0.4,0.7,0.2,1.3-0.4,1.7c-0.6,0.3-1.3,0.1-1.6-0.5c-0.4-0.6-0.2-1.3,0.4-1.7
				C10.9,3.5,11.5,3.8,11.8,4.4z M10.3,5.3c0.2,0.4,0.6,0.6,0.9,0.4c0.3-0.2,0.3-0.6,0.1-1c-0.2-0.4-0.6-0.6-0.9-0.4
				C10.1,4.5,10.1,4.9,10.3,5.3z"/>
			<path id="XMLID_2217_" class="st0" d="M22.4,4.9c-0.1,0-0.3,0-0.6-0.1c-0.8-0.2-1.1-0.8-0.9-1.5c0.2-0.8,0.9-1.1,1.6-0.9
				c0.3,0.1,0.5,0.2,0.5,0.3l-0.2,0.4c-0.1-0.1-0.2-0.2-0.4-0.2C22,2.8,21.6,3,21.4,3.5c-0.1,0.5,0.1,0.8,0.5,1c0.2,0,0.3,0.1,0.5,0
				L22.4,4.9z"/>
			<path id="XMLID_2215_" class="st0" d="M29.4,10.3c-0.1,0-0.3-0.2-0.5-0.4c-0.5-0.7-0.4-1.3,0.2-1.7c0.6-0.5,1.4-0.3,1.8,0.2
				c0.2,0.2,0.3,0.4,0.3,0.5l-0.4,0.2c0-0.1-0.1-0.3-0.2-0.4c-0.3-0.3-0.7-0.4-1.1-0.1c-0.4,0.3-0.4,0.7-0.1,1.1
				c0.1,0.1,0.2,0.3,0.3,0.3L29.4,10.3z"/>
			<path id="XMLID_2212_" class="st0" d="M8.7,6.9c0,0,0.1-0.1,0.2-0.1c0.2-0.2,0.4-0.4,0.4-0.7c0-0.2,0-0.4-0.2-0.6
				C9,5.3,8.8,5.2,8.6,5.2c-0.2,0-0.4,0.1-0.7,0.3C7.6,5.7,7.5,5.9,7.4,6l1.5,1.9C9,7.8,9.1,7.7,9.3,7.5L8.7,6.9z M8.5,6.5L8,6
				c0,0,0.1-0.1,0.2-0.2c0.2-0.2,0.4-0.2,0.6,0C8.9,6,8.8,6.3,8.6,6.4C8.5,6.5,8.5,6.5,8.5,6.5z"/>
			<path id="XMLID_2012_" class="st0" d="M14.3,4.9l-0.2-0.4l-0.9,0.3l-0.7-1.9C12.4,2.9,12.2,3,12,3.1l0.8,2.3
				C13.3,5.2,13.8,5,14.3,4.9z"/>
			<path id="XMLID_2011_" class="st0" d="M15,4.7c0.2,0,0.4-0.1,0.5-0.1l-0.2-1l0.5-1.5c-0.2,0-0.4,0.1-0.6,0.1l-0.1,0.6
				C15,3,15,3.1,15,3.3l0,0c-0.1-0.1-0.2-0.3-0.3-0.4l-0.4-0.5c-0.2,0-0.4,0.1-0.6,0.1l1,1.2L15,4.7z"/>
			<path id="XMLID_2010_" class="st0" d="M25.7,6.7l0.4-0.6c0.2-0.3,0.4-0.6,0.6-0.9l0,0c-0.1,0.3-0.1,0.6-0.2,0.9l-0.1,1
				c0.2,0.1,0.3,0.2,0.5,0.4l1.4-2c-0.1-0.1-0.3-0.2-0.4-0.3l-0.4,0.6c-0.2,0.3-0.4,0.6-0.6,0.8l0,0c0.1-0.3,0.1-0.6,0.2-0.9l0.1-1
				c-0.2-0.1-0.3-0.2-0.5-0.3l-1.4,2C25.4,6.5,25.6,6.6,25.7,6.7z"/>
			<path id="XMLID_2009_" class="st0" d="M27.8,8.4l1.7-1.7c-0.1-0.1-0.3-0.3-0.4-0.4L27.4,8C27.6,8.2,27.7,8.3,27.8,8.4z"/>
			<g id="XMLID_2206_">
				<path id="XMLID_2008_" class="st0" d="M20.2,4C20.2,4,20.2,4,20.2,4l0-0.2c0,0-0.6,0-1,0l0.1-0.5c0.2,0,0.6,0.1,0.9,0.1l0-0.4
					c-0.3,0-0.6-0.1-0.9-0.1l0-0.5c0,0,0.5,0,0.9,0.1l0-0.5c-0.5-0.1-1-0.1-1.5-0.1l-0.2,2.2C19.2,4.1,19.7,4,20.2,4z"/>
			</g>
			<g id="XMLID_2204_">
				<path id="XMLID_2007_" class="st0" d="M16.3,2l0,0.5c0.2,0,0.5,0,0.6-0.1l0.1,1.9c0.2,0,0.4,0,0.5,0l-0.1-1.9c0,0,0.3,0,0.7,0
					l0-0.5C17.5,1.9,16.9,1.9,16.3,2z"/>
			</g>
			<g id="XMLID_2202_">
				<path id="XMLID_2006_" class="st0" d="M25.3,3.6l-0.4,0.9c-0.3-0.2-0.6-0.3-0.8-0.4l0.4-0.9C24.3,3.1,24.1,3.1,24,3l-1,2.2
					c0.2,0.1,0.3,0.1,0.5,0.2l0.4-0.9c0.3,0.1,0.6,0.3,0.8,0.4l-0.4,0.9C24.4,5.9,24.6,6,24.7,6l1-2.2C25.6,3.8,25.4,3.7,25.3,3.6z"
					/>
			</g>
		</g>
		<g id="XMLID_2149_">
			<g id="XMLID_2186_">
				<path id="XMLID_2199_" class="st0" d="M32.2,16.4c-0.1,0.1-0.1,0.4-0.1,0.6c0,0.2,0.1,0.4,0.3,0.4c0.1,0,0.2-0.1,0.3-0.4
					c0.1-0.4,0.3-0.7,0.7-0.7c0.4,0,0.7,0.3,0.8,0.9c0,0.3,0,0.5-0.1,0.6l-0.4-0.1c0-0.1,0.1-0.3,0.1-0.5c0-0.2-0.1-0.3-0.3-0.3
					c-0.2,0-0.2,0.1-0.3,0.5c-0.1,0.4-0.3,0.6-0.7,0.7c-0.4,0-0.8-0.3-0.8-0.9c0-0.3,0-0.6,0.1-0.7L32.2,16.4z"/>
				<path id="XMLID_2004_" class="st0" d="M30,24.6c-0.3,0.5-0.2,1,0.5,1.4l1.2,0.7c0.1-0.2,0.2-0.3,0.3-0.5l-1.2-0.7
					c-0.4-0.2-0.5-0.4-0.3-0.7c0.1-0.2,0.4-0.3,0.8-0.1l1.2,0.7c0.1-0.2,0.2-0.3,0.2-0.5l-1.2-0.7C30.7,23.9,30.3,24.1,30,24.6z"/>
				<path id="XMLID_2003_" class="st0" d="M30.8,13.1l2.2-0.9c-0.1-0.2-0.1-0.3-0.2-0.5l-2.2,0.9C30.7,12.7,30.8,12.9,30.8,13.1z"/>
				<path id="XMLID_2002_" class="st0" d="M31.2,14.2l0.7-0.2c0.4-0.1,0.7-0.2,1-0.3l0,0c-0.2,0.2-0.5,0.4-0.7,0.6l-0.8,0.7
					c0,0.2,0.1,0.4,0.1,0.6l2.4-0.6c0-0.2-0.1-0.3-0.1-0.5l-0.7,0.2c-0.4,0.1-0.7,0.2-1,0.3l0,0c0.2-0.2,0.5-0.4,0.7-0.6l0.8-0.7
					c-0.1-0.2-0.1-0.4-0.2-0.6l-2.4,0.6C31.1,13.9,31.2,14.1,31.2,14.2z"/>
				<path id="XMLID_2001_" class="st0" d="M31.5,20.7c0,0.2-0.1,0.4-0.1,0.5l2.4,0.5c0-0.2,0.1-0.4,0.1-0.5L31.5,20.7z"/>
				<g id="XMLID_2193_">
					<path id="XMLID_2000_" class="st0" d="M31.2,27.4l-0.4-0.3c-0.1,0.2-0.3,0.4-0.4,0.5l-1.5-1.2c-0.1,0.1-0.2,0.3-0.3,0.4L30,28
						c0,0-0.2,0.2-0.4,0.5l0.4,0.3C30.4,28.4,30.8,27.9,31.2,27.4z"/>
				</g>
				<g id="XMLID_2191_">
					<path id="XMLID_1999_" class="st0" d="M26.7,28.7C26.6,28.7,26.6,28.7,26.7,28.7L27,29c0,0,0.4-0.4,0.7-0.7l0.4,0.4
						c-0.2,0.2-0.4,0.4-0.7,0.6l0.3,0.3c0.2-0.2,0.5-0.4,0.7-0.6l0.3,0.4c0,0-0.4,0.4-0.7,0.6l0.3,0.3c0.4-0.3,0.8-0.6,1.1-1
						l-1.6-1.8C27.4,28,27.1,28.3,26.7,28.7z"/>
				</g>
				<g id="XMLID_2189_">
					<path id="XMLID_1998_" class="st0" d="M33.5,22.5l-0.5-0.2c-0.1,0.2-0.1,0.5-0.2,0.6l-1.8-0.6c-0.1,0.2-0.1,0.3-0.2,0.5
						l1.8,0.6c0,0-0.1,0.3-0.2,0.6l0.5,0.2C33.2,23.6,33.4,23.1,33.5,22.5z"/>
				</g>
				<g id="XMLID_2187_">
					<path id="XMLID_1997_" class="st0" d="M34.2,18.6l-0.5,0c0,0.2,0,0.5,0,0.7L31.7,19c0,0.2,0,0.4,0,0.5l1.9,0.2
						c0,0,0,0.3-0.1,0.6l0.5,0C34.1,19.8,34.1,19.2,34.2,18.6z"/>
				</g>
			</g>
			<g id="XMLID_2165_">
				<path id="XMLID_2184_" class="st0" d="M4.5,20.1c0.1,0.1,0.2,0.3,0.2,0.6c0.2,0.8-0.2,1.3-0.9,1.5c-0.8,0.2-1.4-0.3-1.5-1
					c-0.1-0.3-0.1-0.5,0-0.6l0.4,0c0,0.1,0,0.3,0,0.5c0.1,0.4,0.4,0.7,0.9,0.6c0.5-0.1,0.7-0.4,0.6-0.9c0-0.2-0.1-0.3-0.2-0.4
					L4.5,20.1z"/>
				<path id="XMLID_2181_" class="st0" d="M4.6,23.8l-0.1-0.1c-0.1-0.2,0-0.3,0.2-0.5C5,23,5.1,22.9,5.2,22.7
					c-0.1-0.2-0.1-0.4-0.2-0.5c-0.2,0.2-0.4,0.3-0.6,0.4c-0.2,0.1-0.3,0.3-0.3,0.5l0,0C4,23,3.7,22.8,3.5,22.9
					c-0.2,0.1-0.3,0.2-0.4,0.4c-0.1,0.2,0,0.5,0.1,0.8c0.1,0.3,0.2,0.5,0.3,0.7l2.2-0.9c-0.1-0.2-0.2-0.3-0.2-0.5L4.6,23.8z
					 M3.7,24.1c0,0-0.1-0.1-0.1-0.2c-0.1-0.2,0-0.4,0.2-0.5c0.2-0.1,0.4,0,0.5,0.3l0.1,0.2L3.7,24.1z"/>
				<g id="XMLID_2179_">
					<path id="XMLID_1993_" class="st0" d="M4,18C4,18,4,18,4,18l-0.3,0c0,0,0.1,0.6,0.1,1l-0.5,0c0-0.2,0-0.6,0-0.9l-0.4,0
						c0,0.3,0,0.6,0,0.9l-0.5,0c0,0,0-0.5,0-0.9l-0.5,0c0,0.5,0,1,0.1,1.5l2.2-0.2C4.2,19,4,18.5,4,18z"/>
				</g>
				<path id="XMLID_2176_" class="st0" d="M4.9,25.1c0.7-0.4,1.3-0.3,1.7,0.3C7,26,6.8,26.6,6.2,27c-0.6,0.4-1.3,0.3-1.7-0.3
					C4.1,26.1,4.3,25.4,4.9,25.1z M5.9,26.5c0.4-0.3,0.6-0.6,0.4-0.9c-0.2-0.3-0.6-0.3-1,0c-0.4,0.2-0.6,0.6-0.4,0.9
					C5.1,26.8,5.5,26.8,5.9,26.5z"/>
				<path id="XMLID_2174_" class="st0" d="M3.8,17.3C3.9,17.2,4,17,4.1,16.7c0-0.2-0.1-0.4-0.2-0.4c-0.1,0-0.2,0.1-0.4,0.4
					c-0.2,0.4-0.4,0.6-0.8,0.6c-0.4,0-0.7-0.4-0.6-1c0-0.3,0.1-0.5,0.2-0.6l0.4,0.2c-0.1,0.1-0.1,0.3-0.2,0.5c0,0.2,0.1,0.4,0.2,0.4
					c0.2,0,0.2-0.1,0.4-0.4c0.2-0.4,0.4-0.6,0.8-0.5c0.4,0,0.7,0.4,0.6,1c0,0.3-0.1,0.5-0.2,0.7L3.8,17.3z"/>
				<path id="XMLID_2171_" class="st0" d="M5.7,10.3l0.1-0.1C5.9,10,6,9.9,6.3,10c0.2,0.1,0.4,0.1,0.5,0.2C6.9,10,7.1,9.9,7.2,9.7
					C6.9,9.7,6.7,9.6,6.5,9.5c-0.2-0.1-0.4-0.1-0.6,0l0,0c0-0.2,0-0.5-0.3-0.7C5.5,8.7,5.3,8.7,5.1,8.8C4.9,8.8,4.7,9,4.5,9.3
					C4.4,9.6,4.2,9.8,4.2,10l2,1.3c0.1-0.2,0.2-0.3,0.3-0.5L5.7,10.3z M5.4,9.9l-0.1,0.2L4.8,9.7c0,0,0-0.1,0.1-0.2
					C5,9.3,5.2,9.2,5.4,9.3C5.6,9.5,5.6,9.7,5.4,9.9z"/>
				<path id="XMLID_1987_" class="st0" d="M8.6,27.9l-0.9,0.6c-0.2,0.1-0.4,0.3-0.6,0.4l0,0c0.2-0.2,0.3-0.4,0.4-0.6l0.6-0.9
					C8,27.3,7.9,27.1,7.7,27l-2.1,1.2c0.1,0.1,0.2,0.3,0.4,0.4l0.8-0.6c0.2-0.2,0.5-0.3,0.7-0.5l0,0C7.3,27.8,7.2,28,7,28.2
					l-0.6,0.9c0.1,0.1,0.3,0.3,0.4,0.4l0.9-0.6c0.3-0.2,0.5-0.3,0.7-0.5l0,0c-0.1,0.2-0.3,0.5-0.5,0.7L7.3,30
					c0.1,0.1,0.3,0.2,0.4,0.4l1.3-2.1C8.9,28.2,8.8,28,8.6,27.9z"/>
				<g id="XMLID_2168_">
					<path id="XMLID_1986_" class="st0" d="M5.9,11.8C5.9,11.8,5.9,11.8,5.9,11.8l-0.4-0.2c0,0-0.2,0.5-0.4,0.9l-0.5-0.2
						c0.1-0.2,0.2-0.5,0.4-0.8l-0.4-0.2c-0.1,0.3-0.3,0.6-0.4,0.8l-0.4-0.2c0,0,0.2-0.5,0.4-0.9l-0.4-0.2c-0.2,0.4-0.4,0.9-0.6,1.4
						l2.2,1C5.4,12.7,5.6,12.2,5.9,11.8z"/>
				</g>
				<g id="XMLID_2166_">
					<path id="XMLID_1985_" class="st0" d="M2.3,14.8L2.8,15c0-0.2,0.1-0.5,0.1-0.6l1.9,0.5c0-0.2,0.1-0.4,0.1-0.5L3,13.8
						c0,0,0.1-0.3,0.2-0.6L2.7,13C2.6,13.6,2.4,14.2,2.3,14.8z"/>
				</g>
			</g>
			<g id="XMLID_2150_">
				<g id="XMLID_2153_">
					<path id="XMLID_2163_" class="st0" d="M14.7,31.9L14.7,31.9L14.2,32l0-0.4l0.7-0.1l0.4,0.1l-0.5,2.3l-0.5-0.1L14.7,31.9z"/>
					<path id="XMLID_2159_" class="st0" d="M16,32.8c0-0.1-0.2-0.3-0.1-0.5c0-0.4,0.5-0.6,0.9-0.6c0.5,0,0.8,0.4,0.7,0.7
						c0,0.2-0.1,0.4-0.4,0.5l0,0c0.2,0.1,0.4,0.3,0.4,0.6c0,0.4-0.4,0.7-0.9,0.6c-0.6-0.1-1-0.4-0.9-0.7C15.7,33.1,16,32.9,16,32.8
						L16,32.8z M17,33.4c0-0.2-0.1-0.3-0.3-0.4c-0.2,0-0.3,0.2-0.3,0.3c0,0.2,0.1,0.3,0.3,0.4C16.9,33.7,17,33.6,17,33.4z
						 M16.5,32.3c0,0.2,0.1,0.3,0.3,0.3c0.1,0,0.2-0.1,0.3-0.3c0-0.1-0.1-0.3-0.3-0.3C16.6,32,16.5,32.1,16.5,32.3z"/>
					<path id="XMLID_2156_" class="st0" d="M19.7,32.1c-0.1,0-0.1,0.2-0.2,0.2C19,32.3,18.8,32,18.8,33h0c0.1,0,0.3-0.3,0.5-0.4
						c0.4,0,0.7,0.2,0.8,0.6c0,0.5-0.3,0.8-0.8,0.9c-0.6,0-1-0.4-1-1c0-0.4,0.1-0.8,0.3-1.1c0.2-0.2,0.5-0.4,0.9-0.4
						c0.1,0,0.2,0,0.2,0L19.7,32.1z M19.5,33.3c0-0.2-0.1-0.4-0.4-0.4c-0.1,0-0.3,0.1-0.3,0.2c0,0,0,0.1,0,0.1
						c0,0.2,0.2,0.5,0.4,0.4C19.4,33.7,19.5,33.5,19.5,33.3z"/>
					<path id="XMLID_2154_" class="st0" d="M21.8,31.7L21,31.9l0,0.4c0,0,0.1,0,0.1,0c0.2,0,0.5,0,0.6,0c0.2,0.1,0.3,0.2,0.4,0.5
						c0.1,0.4-0.2,0.9-0.8,1c-0.3,0.1-0.5,0-0.7,0l0-0.4c0.1,0,0.3,0,0.5,0c0.2,0,0.4-0.2,0.4-0.4c-0.1-0.2-0.3-0.3-0.7-0.2
						c-0.1,0-0.2,0.1-0.3,0.1l-0.1-1.2l1.2-0.3L21.8,31.7z"/>
				</g>
				<circle id="XMLID_1977_" class="st0" cx="11.1" cy="31.2" r="0.5"/>
				<circle id="XMLID_1976_" class="st0" cx="25" cy="31.2" r="0.5"/>
			</g>
		</g>
		<g id="XMLID_2144_">
			<path id="XMLID_1975_" class="st0" d="M14,15.3v2.4c0-0.1,0.7-0.1,1.2,0.1c0.4,0.1,0.8,0.1,0.8,0v-2.6c0,0.1-0.6,0.2-1,0
				C14.4,15.1,14,15.2,14,15.3z"/>
			<path id="XMLID_1974_" class="st0" d="M13,15.3c-0.4,0.2-1,0.1-1,0v2.6c0,0.1,0.4,0.1,0.8,0c0.5-0.2,0.2-0.2,1.2-0.1v-2.4
				C14,15.2,13.6,15.1,13,15.3z"/>
			<path id="XMLID_1973_" class="st0" d="M21,15.3v2.4c1-0.1,0.7-0.1,1.2,0.1c0.4,0.1,0.8,0.1,0.8,0v-2.6c0,0.1-0.6,0.2-1,0
				C21.4,15.1,22,15.2,21,15.3z"/>
			<path id="XMLID_1972_" class="st0" d="M20,15.3c-0.4,0.1-1,0.1-1,0v2.6c0,0.1,0.4,0.1,0.8,0c0.5-0.2,1.2-0.2,1.2-0.1v-2.4
				C21,15.2,20.6,15.1,20,15.3z"/>
		</g>
		<g id="XMLID_2127_">
			<path id="XMLID_1971_" class="st0" d="M18.9,23c0.7,0,0.3-0.8,0.3-0.8L19,22.4v-0.1c0-0.5-0.3-1-0.7-1.3c-0.3-0.2-0.1-0.5,0-0.6
				l0.2,0c0.1,0,0.2-0.1,0.3,0c0.1,0,0.1,0,0.1,0c0.1,0,0.1-0.2,0-0.3c-0.1-0.1-0.2-0.2-0.2-0.2c0,0,0,0-0.1,0.1
				c0,0.1-0.1,0.1-0.2,0.2l-0.1,0c0,0,0,0,0,0c-0.2-0.1-0.3,0-0.3,0c-0.2-0.1-0.3,0.1-0.3,0.1c-0.2-0.1-0.3,0.1-0.3,0.1
				c-0.3,0-0.3,0.2-0.2,0.3l-0.4,0.2l-0.2-0.4L16,20.6l0.4,0.9l0.3,0.1l0.3-0.1l0.1-0.3L17,21l0.3-0.1c0,0.1,0.1,0.2,0.3,0.2
				c0.3,0,0.4-0.1,0.6,0.5c0.2,0.5,0.6,0.7,0.6,0.7c-0.5-0.1-0.7,0.1-0.7,0.1c-0.8,0-1,0.7-1.1,0.7h-1.2c0.1,1,0.1,1,0.2,1h3.8
				c0.1,0,0.1,0,0.2-1H18.9z"/>
			<g id="XMLID_2136_">
				<g id="XMLID_2138_">
					<path id="XMLID_1970_" class="st0" d="M14.6,24.3c0.1-0.2,0.1-0.5,0-0.8c-0.2,0.1-0.3,0.2-0.4,0.4c0.1,0.2,0.2,0.4,0.3,0.6
						C14.5,24.5,14.6,24.4,14.6,24.3z"/>
					<path id="XMLID_1969_" class="st0" d="M15.3,25.3c0.1-0.3,0-0.6-0.2-0.8c-0.2,0.1-0.4,0.3-0.4,0.6c0.1,0.2,0.3,0.4,0.4,0.6
						C15.2,25.6,15.3,25.5,15.3,25.3z"/>
					<path id="XMLID_1968_" class="st0" d="M14.2,23.1c0.1-0.2,0.1-0.5,0.1-0.7c-0.2,0-0.4,0.2-0.5,0.3c0.1,0.2,0.1,0.5,0.2,0.7
						C14,23.3,14.1,23.2,14.2,23.1z"/>
					<path id="XMLID_1967_" class="st0" d="M13.9,21.9c0.1-0.2,0.2-0.5,0.2-0.7c-0.2,0-0.3,0.1-0.5,0.2c0,0.2,0,0.5,0.1,0.7
						C13.7,22,13.8,22,13.9,21.9z"/>
				</g>
				<path id="XMLID_1966_" class="st0" d="M15.5,26.5c-1.9-2-2.4-4.3-2.4-5.5L13,21c0,0,0,0,0,0c0-0.1,0.4-0.3,0.5-0.5
					c0-0.3,0.1-0.6-0.1-0.8C13.2,19.7,13,20,13,20.3c0,0.3,0,0.5,0.2,0.7c0,0.2,0,0.4,0,0.6c0-0.1,0-0.1-0.1-0.2
					c-0.1-0.2-0.4-0.4-0.6-0.5c-0.1,0.3,0,0.5,0.1,0.8c0.1,0.2,0.4,0.4,0.6,0.5c0,0.2,0,0.4,0.1,0.6c0,0,0-0.1-0.1-0.1
					c-0.2-0.2-0.4-0.3-0.7-0.4c0,0.3,0.1,0.5,0.3,0.8c0.2,0.2,0.4,0.3,0.7,0.4c0.1,0.2,0.1,0.4,0.2,0.6c0,0-0.1-0.1-0.1-0.1
					c-0.2-0.2-0.5-0.3-0.7-0.2c0,0.3,0.2,0.5,0.4,0.7c0.2,0.2,0.5,0.2,0.7,0.2c0.1,0.2,0.2,0.4,0.3,0.5c0,0-0.1-0.1-0.1-0.1
					c-0.3-0.1-0.5-0.2-0.8-0.1c0.1,0.3,0.3,0.5,0.6,0.7c0.2,0.1,0.4,0.1,0.5,0.1c0.1,0,0.1,0,0.2,0c0.3,0.4,0.6,0.8,0.9,1.1
					C15.5,26.8,15.5,26.6,15.5,26.5z"/>
			</g>
			<g id="XMLID_2129_">
				<g id="XMLID_2131_">
					<path id="XMLID_1965_" class="st0" d="M21.6,24.6c0.1-0.2,0.2-0.4,0.3-0.6c-0.1-0.2-0.2-0.3-0.4-0.4c-0.1,0.2-0.1,0.5,0,0.8
						C21.4,24.4,21.5,24.5,21.6,24.6z"/>
					<path id="XMLID_1964_" class="st0" d="M20.9,25.7c0.1-0.2,0.3-0.4,0.4-0.6c-0.1-0.2-0.2-0.5-0.4-0.6c-0.2,0.2-0.2,0.5-0.2,0.8
						C20.8,25.5,20.8,25.6,20.9,25.7z"/>
					<path id="XMLID_1963_" class="st0" d="M22.1,23.4c0.1-0.2,0.1-0.4,0.2-0.7c-0.1-0.2-0.3-0.3-0.5-0.3c-0.1,0.3-0.1,0.5,0.1,0.7
						C21.9,23.2,22,23.3,22.1,23.4z"/>
					<path id="XMLID_1962_" class="st0" d="M22.4,22.1c0-0.2,0.1-0.5,0.1-0.7c-0.1-0.1-0.3-0.2-0.5-0.2c0,0.3,0,0.5,0.2,0.7
						C22.2,22,22.3,22,22.4,22.1z"/>
				</g>
				<path id="XMLID_1961_" class="st0" d="M20.5,27c0.3-0.4,0.6-0.7,0.9-1.1c0.1,0,0.1,0,0.2,0c0.2,0,0.4,0,0.5-0.1
					c0.3-0.1,0.5-0.4,0.6-0.7c-0.3-0.1-0.5-0.1-0.8,0.1c0,0-0.1,0.1-0.1,0.1c0.1-0.2,0.2-0.4,0.3-0.5c0.2,0,0.5-0.1,0.7-0.2
					c0.2-0.2,0.4-0.4,0.4-0.7c-0.3,0-0.5,0.1-0.7,0.2c0,0-0.1,0.1-0.1,0.1c0.1-0.2,0.2-0.4,0.2-0.6c0.2,0,0.5-0.2,0.7-0.4
					c0.2-0.2,0.3-0.5,0.3-0.8c-0.3,0-0.5,0.2-0.7,0.4c0,0,0,0.1-0.1,0.1c0-0.2,0.1-0.4,0.1-0.6c0.2-0.1,0.5-0.3,0.6-0.5
					c0.1-0.2,0.2-0.5,0.1-0.8c-0.3,0.1-0.5,0.3-0.6,0.5c0,0.1-0.1,0.1-0.1,0.2c0-0.2,0-0.4-0.1-0.6c0.1-0.2,0.2-0.5,0.1-0.7
					c0-0.3-0.2-0.5-0.4-0.7c-0.2,0.2-0.6,0.6-0.5,0.8c0,0.2,0,0.4,0,0.5c0,0,0,0,0,0l0.4,0c0,1.2-0.1,3.4-2,5.5
					C20.4,26.6,20.6,26.8,20.5,27z"/>
			</g>
			<path id="XMLID_1960_" class="st0" d="M16.2,26.1c0,0,0,0.1,0,0.2c0,0,0,0.1,0,0.1c0.1,0.2,0.2,0.4,0.3,0.6
				c0.3,0.4,0.7,0.9,1.5,1.5c0.3-0.2,0.6-0.4,0.8-0.6c0.5-0.5,0.8-0.9,1.1-1.5c0,0,0,0,0,0c0-0.1,0.1-0.2,0.1-0.3
				c0-0.3-0.1-0.6-0.3-0.8c-0.4-0.4-1-0.4-1.4,0c-0.1,0.1-0.1,0.2-0.2,0.3c0-0.1-0.1-0.2-0.2-0.3c-0.4-0.4-1-0.4-1.4,0
				C16.2,25.4,16.1,25.7,16.2,26.1C16.1,26,16.1,26,16.2,26.1C16.1,26.1,16.1,26.1,16.2,26.1z"/>
		</g>
		<path id="XMLID_2097_" class="st0" d="M11.7,12l0.5-0.1v-0.2l-0.3,0.1v-0.9l-0.2,0.1V12z M12.9,11l-0.3,0.1v-0.3l0.3-0.1v-0.2
			l-0.5,0.2v1.1l0.5-0.2v-0.2l-0.3,0.1v-0.3l0.3-0.1V11z M13.1,10.5v1.1l0.2-0.1V11l0.2-0.1v0.5l0.2-0.1v-1.1l-0.2,0.1v0.5l-0.2,0.1
			v-0.5L13.1,10.5z M13.9,11.2l0.2-0.1v-0.4l0,0c0.1,0,0.1,0,0.1,0.1c0,0.1,0,0.2,0.1,0.2l0.2-0.1c0,0-0.1-0.2-0.1-0.3
			c0-0.1-0.1-0.2-0.1-0.2v0c0.1-0.1,0.2-0.2,0.2-0.4c0-0.1,0-0.2-0.1-0.2c-0.1,0-0.2,0-0.3,0c-0.1,0-0.2,0.1-0.2,0.1V11.2z
			 M14.1,10.1C14.1,10.1,14.2,10.1,14.1,10.1c0.2-0.1,0.2,0,0.2,0.1c0,0.1-0.1,0.2-0.1,0.2l0,0V10.1z M21.3,10.8l0.2,0.1v-0.4
			l0.1-0.1l0.2,0.5l0.2,0.1l-0.3-0.7L22,9.9l-0.2-0.1l-0.2,0.3c0,0,0,0.1-0.1,0.1l0,0V9.7l-0.2-0.1V10.8z M22.1,10v0.7
			c0,0.3,0.1,0.5,0.3,0.6c0.2,0.1,0.3,0,0.3-0.3v-0.7l-0.2-0.1v0.7c0,0.2,0,0.2-0.1,0.2c-0.1,0-0.1-0.1-0.1-0.3v-0.7L22.1,10z
			 M23.1,11.6v-0.3c0-0.2,0-0.4,0-0.5l0,0c0,0.1,0.1,0.3,0.1,0.4l0.2,0.5l0.2,0.1v-1.1l-0.2-0.1v0.2c0,0.2,0,0.4,0,0.5l0,0
			c0-0.1-0.1-0.3-0.1-0.4l-0.2-0.5l-0.2-0.1v1.1L23.1,11.6z M23.7,11.8c0,0,0.1,0.1,0.2,0.1c0.2,0.1,0.4,0,0.4-0.2
			c0-0.1-0.1-0.2-0.2-0.4C24,11.1,24,11.1,24,11c0-0.1,0-0.1,0.1-0.1c0.1,0,0.1,0,0.1,0.1l0-0.2c0,0-0.1-0.1-0.2-0.1
			c-0.2-0.1-0.4,0.1-0.4,0.2c0,0.1,0.1,0.2,0.2,0.4c0.1,0.1,0.2,0.1,0.2,0.2c0,0.1-0.1,0.1-0.2,0.1c-0.1,0-0.1-0.1-0.2-0.1
			L23.7,11.8z M24.6,12l0.2,0v-0.9l0.2,0V11l-0.7-0.1v0.2l0.2,0V12z M16.7,11.4v0.8c0,0.3,0.1,0.5,0.4,0.5c0.3,0,0.4-0.1,0.4-0.5
			v-0.8l-0.3,0v0.8c0,0.2-0.1,0.2-0.1,0.2c-0.1,0-0.1-0.1-0.1-0.3v-0.8L16.7,11.4z M17.9,12.8v-0.3c0-0.3,0-0.4,0-0.6h0
			c0,0.1,0.1,0.3,0.1,0.4l0.2,0.5l0.2,0v-1.3l-0.2,0v0.3c0,0.2,0,0.4,0,0.6h0c0-0.1-0.1-0.3-0.1-0.4l-0.2-0.5l-0.2,0v1.3L17.9,12.8z
			 M18.7,12.8c0.1,0,0.1,0,0.2,0c0.2,0,0.3-0.1,0.4-0.2c0.1-0.1,0.2-0.3,0.2-0.5c0-0.2-0.1-0.4-0.2-0.5c-0.1-0.1-0.2-0.1-0.4-0.1
			c-0.1,0-0.2,0-0.3,0V12.8z M19,11.7C19,11.7,19,11.7,19,11.7c0.2,0,0.3,0.1,0.3,0.4c0,0.3-0.1,0.5-0.2,0.5c0,0,0,0,0,0V11.7z"/>
		<path id="XMLID_2092_" class="st0" d="M18,5.3C11,5.3,5.3,11,5.3,18c0,7,5.7,12.7,12.7,12.7c7,0,12.7-5.7,12.7-12.7
			C30.7,11,25,5.3,18,5.3z M11.7,9l0.4,1.1c0.3-0.1,0.7-0.2,1.1-0.5c2.4-1.3,3.7-0.9,3.7-0.4c0,0.6-1.7,0.4-1.7,1.1
			c0,0.4,1.3,0.7,2.9,0.7c1.6,0,2.9-0.3,2.9-0.7c0-0.7-1.7-0.5-1.7-1.1c0-0.6,1.3-0.9,3.7,0.4c0.4,0.2,0.5,0.4,0.8,0.5l0.2-1V9.1V9
			h2.6L26,10c0.3,0.3,0.4,0.5,0.4,0.5l0,0l-1.6,2.1c-1-0.1-1.9-0.5-1.9-0.5l-0.5,0c-0.7-0.4-1.4-0.6-2.4-0.8v1.2
			c0,0.4-0.8,0.7-2.5,0.7c-1.6,0-2.5-0.3-2.5-0.7v-1.2c-1,0.1-1.1,0.4-1.9,0.8c-0.8,0.4-1.4,0.5-1.9,0.5l-1.6-2.1
			c0,0,0.1-0.3,0.4-0.6L9.6,9H11.7z M18,29.8C14,27.5,10.9,24,9.7,19h16.6C25.1,24,22.1,27.5,18,29.8z M26.4,19H9.6
			c-0.3-1-0.5-2.6-0.5-3.9c0-0.5,0-1,0.1-1.6c0.1,0.1,0.6,0.5,1.4,0.5h4.9c2.1,0,2.4,0.7,2.4,0.7s0.4-0.7,2.4-0.7h4.9
			c0.8,0,1.3-0.4,1.4-0.5c0,0.5,0.1,1.1,0.1,1.6C26.8,16.4,26.7,18,26.4,19z"/>
	</g>
	<g id="XMLID_2023_">
		<path id="XMLID_2089_" class="st0" d="M70,9c-2,0.3-2,0.6-2.9,3.2c-0.7,1.9-2,7.8-4.5,15.8h-1.4c-1.7-5-3.4-9-5.1-14h-0.1
			c-1.6,5-3.2,9-4.7,14h-1.4c-1.6-5-3.3-10.6-5-16C44.4,9.6,43,9.3,42,9V8h8v1c-2,0.3-2,0.5-1.6,2c1.1,3.7,2.4,8,3.6,11H52
			c1.5-4,3.1-9,4.5-14h1.3c1.7,5,3.4,10,5.1,14H63c1.2-3,2.1-8.8,2.6-10.7C66,9.5,66,9.3,63,9V8h7V9z"/>
		<path id="XMLID_2086_" class="st0" d="M81.9,20.8c0,4.9-3.5,7.2-6.9,7.2c-4.5,0-6.9-3.4-6.9-6.7c0-4.9,3.8-7.3,7-7.3
			C79.2,14,81.9,17.2,81.9,20.8z M71.9,20.3c0,3.7,1.4,6.6,3.5,6.6c1.4,0,2.7-1,2.7-5.3c0-3.9-1.2-6.5-3.4-6.5
			C73.3,15.2,71.9,16.9,71.9,20.3z"/>
		<path id="XMLID_2084_" class="st0" d="M88.5,17c1-2,2.3-3.1,3.5-3.1c1.1,0,1.9,0.9,1.9,1.8c0,0.9-0.6,1.7-1.3,2
			c-0.4,0.2-0.7,0.1-0.9-0.1c-0.5-0.4-1.1-0.6-1.6-0.6C89.5,17,89,17.6,88,19v5.6c0,1.9,0,2.1,2,2.2V28h-7v-1.2c1-0.2,2-0.3,2-2.2
			v-6.5c0-1.7-1-1.8-2-2.1v-0.8c2-0.2,3-0.6,5-1.2v3H88.5z"/>
		<path id="XMLID_2082_" class="st0" d="M106,24.9c-1.4,1.9-3.4,3.2-5.2,3.2c-4,0-6.4-3.1-6.4-6.4c0-2.3,1.1-4.4,3.1-5.9
			c1.8-1.4,3.7-1.8,4.9-1.8h0c1.1,0,2.1,0.4,2.6,0.8c0.4,0.3,0.5,0.6,0.5,1.1c0,0.8-0.8,1.5-1.2,1.5c-0.2,0-0.4-0.1-0.6-0.3
			c-1.1-1-2.1-1.4-3-1.4c-1.5,0-3,1.4-3,4.6c0,4.1,2.9,5.4,4.3,5.4c1.3,0,2.2-0.3,3.4-1.4L106,24.9z"/>
		<path id="XMLID_2079_" class="st0" d="M118.3,24.9c-1.8,2.6-4.1,3.2-5.3,3.2c-3.9,0-6.1-3-6.1-6.5c0-2.2,0.9-4.1,2.1-5.4
			c1.3-1.4,3-2.2,4.5-2.2h0c2.7,0,4.8,2.3,4.8,4.8c0,0.6-0.2,0.9-0.8,1.1c-0.5,0.1-4.2,0.4-7.4,0.5c0.1,3.6,2.1,5.2,4.2,5.2
			c1.2,0,2.3-0.4,3.4-1.4L118.3,24.9z M110.4,19c1.4,0,2.7,0,4.1-0.1c0.5,0,0.7-0.1,0.7-0.6c0-1.5-0.8-3.1-2.1-3.1
			C111.8,15.2,110.6,16.6,110.4,19z"/>
		<path id="XMLID_2077_" class="st0" d="M128.4,18.2c-0.7-1.8-1.7-3.1-3.2-3.1c-0.9,0-1.7,0.8-1.7,1.8c0,1.1,0.9,1.8,2.4,2.4
			c2.4,1,4,2.1,4,4.4c0,2.9-2.7,4.3-5.3,4.3c-1.6,0-3.1-0.6-3.7-1c-0.2-0.5-0.5-2.6-0.5-3.9l0.8-0.1c0.6,1.9,2,3.9,3.8,3.9
			c1,0,1.8-0.8,1.8-1.8c0-1-0.6-1.8-2.3-2.6c-1.5-0.7-3.8-1.8-3.8-4.4c0-2.3,1.9-4.1,4.9-4.1c1.3,0,2.1,0.3,2.8,0.5
			c0.3,0.7,0.7,2.7,0.7,3.4L128.4,18.2z"/>
		<path id="XMLID_2075_" class="st0" d="M137.9,27.7c-0.5,0.2-1.1,0.4-1.3,0.4c-2.2,0-3.6-1.1-3.6-3.7V16h-1.7l-0.2-0.7l0.8-1.3h1.1
			v-1.8l2.7-2.2l0.3,0.1V14h3.7c0.3,1,0.3,2-0.2,2H136v7.3c0,2.4,1.3,2.7,2,2.7c0.6,0,1.3-0.2,1.8-0.4l0.3,0.9L137.9,27.7z"/>
		<path id="XMLID_2072_" class="st0" d="M152.6,24.9c-1.8,2.6-4.1,3.2-5.3,3.2c-3.9,0-6.1-3-6.1-6.5c0-2.2,0.9-4.1,2.1-5.4
			c1.3-1.4,3-2.2,4.5-2.2h0c2.7,0,4.8,2.3,4.8,4.8c0,0.6-0.2,0.9-0.8,1.1c-0.5,0.1-4.2,0.4-7.4,0.5c0.1,3.6,2.1,5.2,4.2,5.2
			c1.2,0,2.3-0.4,3.4-1.4L152.6,24.9z M144.7,19c1.4,0,2.7,0,4.1-0.1c0.5,0,0.7-0.1,0.7-0.6c0-1.5-0.8-3.1-2.1-3.1
			C146.1,15.2,144.9,16.6,144.7,19z"/>
		<path id="XMLID_2070_" class="st0" d="M159.5,17c1-2,2.3-3.1,3.5-3.1c1.1,0,1.9,0.9,1.9,1.8c0,0.9-0.6,1.7-1.3,2
			c-0.4,0.2-0.7,0.1-0.9-0.1c-0.5-0.4-1.1-0.6-1.6-0.6c-0.7,0-1.2,0.6-2.2,1.9v5.6c0,1.9,0,2.1,2,2.2V28h-7v-1.2c1-0.2,2-0.3,2-2.2
			v-6.5c0-1.7-1-1.8-2-2.1v-0.8c2-0.2,3-0.6,5-1.2v3H159.5z"/>
		<path id="XMLID_2067_" class="st0" d="M182,8c2.3,0,4,0.4,5.2,1.2c1.3,1,2.1,2.4,2.1,4.4c0,4-3,5.9-6.1,6.2
			c-0.5,0.1-1.3,0.1-1.7,0.1l-2.5-0.5v4.4c0,2.6,1,2.7,3,3V28h-9v-1.3c3-0.2,3-0.4,3-3V12c0-2.6,0-2.7-3-3V8H182z M179,18.3
			c1,0.2,1.5,0.3,2.3,0.3c1.4,0,4-0.9,4-4.9c0-3.4-1.9-4.6-3.9-4.6c-0.7,0-1.5,0.2-1.7,0.3c-0.2,0.2-0.7,0.5-0.7,1.1V18.3z"/>
		<path id="XMLID_2064_" class="st0" d="M203.7,20.8c0,4.9-3.5,7.2-6.9,7.2c-4.5,0-6.9-3.4-6.9-6.7c0-4.9,3.8-7.3,7-7.3
			C200.9,14,203.7,17.2,203.7,20.8z M193.7,20.3c0,3.7,1.4,6.6,3.5,6.6c1.4,0,2.7-1,2.7-5.3c0-3.9-1.2-6.5-3.4-6.5
			C195,15.2,193.7,16.9,193.7,20.3z"/>
		<path id="XMLID_2062_" class="st0" d="M205,28v-1.2c1-0.2,2-0.4,2-2.4v-14c0-1.9,0-2-2-2.2V7.4c1-0.2,4-0.6,5-1.1v18.1
			c0,2,0,2.2,2,2.4V28H205z"/>
		<path id="XMLID_2060_" class="st0" d="M230.4,15h-3.2c-1.3,0-1.8,0.7-2.6,2.3c-0.8,1.6-1.7,4.2-3.6,8.7c-2,4.8-2.6,6.7-3.1,8.4
			c-0.2,0.6-0.6,0.8-1.1,0.8c-0.8,0-2-0.8-2-1.7c0-0.5,0.2-0.8,0.8-1.1c1.1-0.6,1.8-1.3,2.4-2.4c0.4-0.7,0.6-1.2,0.7-1.5
			c0.2-0.5,0.1-0.9-0.1-1.4c-1.5-4-3.3-8.1-4-9.7c-0.6-1.4-0.7-1.8-2.7-2V14h7v1.3c-1,0.3-1.2,0.5-0.9,1.5l2.6,7
			c0.8-1.8,1.5-5.1,2.1-6.9c0.3-1.1,0.2-1.4-1.8-1.7V14h8.6L230.4,15z"/>
		<path id="XMLID_2058_" class="st0" d="M233.3,27.7c-0.5,0.2-1.3,0.4-1.5,0.4c-2.2,0-3.8-1.1-3.8-3.7V12.2l2.7-2.2l0.3,0.1V14h4
			c0.3,1,0.3,2-0.2,2H231v7.3c0,2.4,1.5,2.7,2.2,2.7c0.6,0,1.4-0.2,1.9-0.4l0.4,0.9L233.3,27.7z"/>
		<path id="XMLID_2055_" class="st0" d="M248.3,24.9c-1.8,2.6-4.1,3.2-5.3,3.2c-3.9,0-6.1-3-6.1-6.5c0-2.2,0.9-4.1,2.1-5.4
			c1.3-1.4,3-2.2,4.5-2.2h0c2.7,0,4.8,2.3,4.8,4.8c0,0.6-0.2,0.9-0.8,1.1c-0.5,0.1-4.2,0.4-7.4,0.5c0.1,3.6,2.1,5.2,4.2,5.2
			c1.2,0,2.3-0.4,3.4-1.4L248.3,24.9z M240.4,19c1.4,0,2.7,0,4.1-0.1c0.5,0,0.7-0.1,0.7-0.6c0-1.5-0.8-3.1-2.1-3.1
			C241.8,15.2,240.6,16.6,240.4,19z"/>
		<path id="XMLID_2053_" class="st0" d="M261.9,24.9c-1.4,1.9-3.4,3.2-5.2,3.2c-4,0-6.4-3.1-6.4-6.4c0-2.3,1.1-4.4,3.1-5.9
			c1.8-1.4,3.7-1.8,4.9-1.8h0c1.1,0,2.1,0.4,2.6,0.8c0.4,0.3,0.5,0.6,0.5,1.1c0,0.8-0.8,1.5-1.2,1.5c-0.2,0-0.4-0.1-0.6-0.3
			c-1.1-1-2.1-1.4-3.1-1.4c-1.5,0-3,1.4-3,4.6c0,4.1,2.9,5.4,4.3,5.4c1.3,0,2.2-0.3,3.4-1.4L261.9,24.9z"/>
		<path id="XMLID_2051_" class="st0" d="M271,28v-1.2c1-0.2,1-0.4,1-2.2v-5.2c0-2.4-1-3.3-2.5-3.3c-0.9,0-1.5,0.3-2.5,1.1v7.4
			c0,1.8,1,2,2,2.2V28h-7v-1.2c2-0.1,2-0.3,2-2.2V10.4c0-1.9,0-1.9-2-2.1V7.4c2-0.2,4-0.6,5-1.1v9.7c2-1.1,2.9-2.1,4.5-2.1
			c2.6,0,4.5,1.7,4.5,5.1v5.4c0,1.9,0,2,2,2.2V28H271z"/>
		<path id="XMLID_2049_" class="st0" d="M288,28v-1.2c1-0.2,1-0.3,1-2.4v-5.1c0-2.1-0.9-3.1-2.4-3.1c-0.9,0-1.6,0.5-2.6,1.1v7.2
			c0,1.9,0,2.1,2,2.2V28h-7v-1.2c2-0.2,2-0.3,2-2.3v-6.3c0-1.8,0-2-2-2.3v-0.8c2-0.2,4-0.6,5-1.2v2.3c1-0.4,1.6-0.9,2.3-1.4
			c0.9-0.6,1.7-0.9,2.6-0.9c2.4,0,4.1,1.8,4.1,4.7v5.8c0,1.9,0,2,1,2.2V28H288z"/>
		<path id="XMLID_2046_" class="st0" d="M296,28v-1.2c2-0.2,2-0.3,2-2.4v-6.1c0-1.9,0-2.1-2-2.3v-0.8c2-0.2,4-0.6,5-1.1v10.3
			c0,2.1,0,2.2,2,2.4V28H296z M297.9,10c0-1.1,0.9-1.9,1.9-1.9c1.1,0,1.9,0.8,1.9,1.9c0,1-0.8,1.9-1.9,1.9
			C298.7,11.9,297.9,11,297.9,10z"/>
		<path id="XMLID_2044_" class="st0" d="M316.4,24.9c-1.4,1.9-3.4,3.2-5.2,3.2c-4,0-6.4-3.1-6.4-6.4c0-2.3,1.1-4.4,3-5.9
			c1.8-1.4,3.7-1.8,4.9-1.8h0c1.1,0,2.1,0.4,2.6,0.8c0.4,0.3,0.5,0.6,0.5,1.1c0,0.8-0.8,1.5-1.2,1.5c-0.2,0-0.4-0.1-0.6-0.3
			c-1.1-1-2.1-1.4-3.1-1.4c-1.5,0-3,1.4-3,4.6c0,4.1,2.9,5.4,4.3,5.4c1.3,0,2.2-0.3,3.4-1.4L316.4,24.9z"/>
		<path id="XMLID_2042_" class="st0" d="M325,28v-1.3c2-0.2,2-0.4,2-3V12c0-2.6,0-2.7-2-3V8h9v1c-3,0.2-3,0.4-3,3v11.8
			c0,2.6,0,2.7,3,3V28H325z"/>
		<path id="XMLID_2040_" class="st0" d="M344,28v-1.2c2-0.2,2-0.3,2-2.4v-5.1c0-2.1-0.9-3.1-2.3-3.1c-0.9,0-1.7,0.5-2.7,1.1v7.2
			c0,1.9,0,2.1,1,2.2V28h-7v-1.2c2-0.2,3-0.3,3-2.3v-6.3c0-1.8-1-2-2-2.3v-0.8c1-0.2,3-0.6,5-1.2v2.3c0-0.4,1.4-0.9,2.1-1.4
			c0.9-0.6,1.3-0.9,2.2-0.9c2.4,0,3.7,1.8,3.7,4.7v5.8c0,1.9,0,2,2,2.2V28H344z"/>
		<path id="XMLID_2038_" class="st0" d="M361.1,18.2c-0.7-1.8-1.7-3.1-3.2-3.1c-0.9,0-1.7,0.8-1.7,1.8c0,1.1,0.9,1.8,2.4,2.4
			c2.4,1,4,2.1,4,4.4c0,2.9-2.7,4.3-5.3,4.3c-1.6,0-3.1-0.6-3.7-1c-0.2-0.5-0.5-2.6-0.5-3.9L354,23c0.6,1.9,2,3.9,3.8,3.9
			c1,0,1.8-0.8,1.8-1.8c0-1-0.6-1.8-2.3-2.6c-1.5-0.7-3.8-1.8-3.8-4.4c0-2.3,1.9-4.1,4.9-4.1c1.3,0,2.1,0.3,2.8,0.5
			c0.3,0.7,0.7,2.7,0.7,3.4L361.1,18.2z"/>
		<path id="XMLID_2036_" class="st0" d="M370.7,27.7c-0.5,0.2-1,0.4-1.2,0.4c-2.2,0-3.5-1.1-3.5-3.7V16h-1.9l-0.2-0.7l0.8-1.3h1.3
			v-1.8l2.7-2.2l0.3,0.1V14h3.5c0.3,1,0.3,2-0.2,2H369v7.3c0,2.4,1.2,2.7,1.9,2.7c0.6,0,1.3-0.2,1.7-0.4l0.3,0.9L370.7,27.7z"/>
		<path id="XMLID_2033_" class="st0" d="M374,28v-1.2c2-0.2,2-0.3,2-2.4v-6.1c0-1.9,0-2.1-2-2.3v-0.8c2-0.2,4-0.6,6-1.1v10.3
			c0,2.1,0,2.2,2,2.4V28H374z M376.3,10c0-1.1,0.9-1.9,1.9-1.9c1.1,0,1.9,0.8,1.9,1.9c0,1-0.8,1.9-1.9,1.9
			C377.2,11.9,376.3,11,376.3,10z"/>
		<path id="XMLID_2031_" class="st0" d="M390,27.7c-0.5,0.2-1.1,0.4-1.4,0.4c-2.2,0-3.6-1.1-3.6-3.7V16h-1.7l-0.1-0.7L384,14h1v-1.8
			l2.7-2.2l0.3,0.1V14h3.7c0.3,1,0.3,2-0.2,2H388v7.3c0,2.4,1.4,2.7,2,2.7c0.6,0,1.3-0.2,1.8-0.4l0.3,0.9L390,27.7z"/>
		<path id="XMLID_2029_" class="st0" d="M409,27c-1,0.1-1.7,0.3-2.6,0.5c-0.9,0.2-2.1,0.4-2.9,0.6l-0.6-0.2v-1.9
			c0,0.5-0.7,0.9-1.5,1.3c-0.9,0.5-1.7,0.8-2.6,0.8c-2.3,0-3.9-1.5-3.9-4.4v-6.1c0-1.5-0.4-1.6-1.1-1.8l-0.9-0.2v-0.8
			c1,0,1.9-0.1,2.9-0.2c0.9-0.1,1.7-0.2,2.4-0.3c-0.1,1.1-0.3,2.7-0.3,4.5V23c0,2.2,1.2,2.9,2.4,2.9c0.9,0,1.6-0.3,2.6-1.1v-7.2
			c0-1.5-0.2-1.7-1-1.8l-1-0.2v-0.8c1,0,1.7-0.1,2.7-0.2c1-0.1,2.3-0.2,2.3-0.3v9.9c0,1.5,0.7,1.8,1.8,1.9l1.2,0.1V27z"/>
		<path id="XMLID_2027_" class="st0" d="M416.1,27.7c-0.5,0.2-1.2,0.4-1.4,0.4c-2.2,0-3.6-1.1-3.6-3.7V16h-1.6l-0.2-0.7l0.8-1.3h0.9
			v-1.8l2.7-2.2l0.3,0.1V14h3.8c0.3,1,0.3,2-0.2,2H414v7.3c0,2.4,1.4,2.7,2.1,2.7c0.6,0,1.4-0.2,1.8-0.4l0.4,0.9L416.1,27.7z"/>
		<path id="XMLID_2024_" class="st0" d="M430.8,24.9c-1.8,2.6-4.1,3.2-5.3,3.2c-3.9,0-6.1-3-6.1-6.5c0-2.2,0.9-4.1,2.1-5.4
			c1.3-1.4,3-2.2,4.5-2.2h0c2.7,0,4.8,2.3,4.8,4.8c0,0.6-0.2,0.9-0.8,1.1c-0.5,0.1-4.2,0.4-7.4,0.5c0.1,3.6,2.1,5.2,4.2,5.2
			c1.2,0,2.3-0.4,3.4-1.4L430.8,24.9z M422.8,19c1.4,0,2.7,0,4.1-0.1c0.5,0,0.7-0.1,0.7-0.6c0-1.5-0.8-3.1-2.1-3.1
			C424.3,15.2,423.1,16.6,422.8,19z"/>
	</g>
</g>
</svg>
