<?xml version="1.0" encoding="utf-8"?>
<!-- Generator: Adobe Illustrator 19.2.0, SVG Export Plug-In . SVG Version: 6.00 Build 0)  -->
<svg version="1.1" id="Layer_1" xmlns="http://www.w3.org/2000/svg" xmlns:xlink="http://www.w3.org/1999/xlink" x="0px" y="0px"
	 viewBox="0 0 1024 1024" style="enable-background:new 0 0 1024 1024;" xml:space="preserve">
<style type="text/css">
	.st0{fill:#AC2B37;}
</style>
<g id="JmO6g6.tif">
	<g>
		<path class="st0" d="M54.8,359.4c1.7,0,3.5,0.1,5.2,0.1c45.6,0,91.2,0,136.7,0c1.5,0,2.9,0.1,4.6,0.1c0.5,2.4,0.2,4.6,0.3,6.8
			c0,2.1,0,4.2,0,6.3c0,2.2,0,4.4,0,6.4c-1.2,1.1-2.3,0.8-3.4,1c-5.8,0.6-11.5,1.6-17,3.8c-3,1.2-5.9,2.7-8.3,4.8
			c-5.2,4.5-7,10.1-5,16.8c6.6,22.7,13.3,45.5,19.9,68.2c11.6,39.5,23.1,79.1,34.7,118.6c0.4,1.3,0.5,2.6,1.3,3.6
			c1,0.2,1-0.4,1.1-0.8c0.2-0.4,0.4-0.9,0.5-1.4c2.5-7.8,5-15.6,7.5-23.4c21.7-67.4,43.4-134.9,65-202.3c0.5-1.5,1.1-3,1.6-4.5
			c3.1-0.4,20.8-0.5,24.6,0c0.5,1.3,1.2,2.8,1.7,4.3c9.7,26.7,19.4,53.4,29.1,80.1c17.7,48.8,35.4,97.5,53.1,146.2
			c0.4,1.2,0.5,2.7,2.1,3.7c0.4-1.3,0.9-2.4,1.2-3.6c6.1-20.3,12.3-40.6,18.2-61c9.4-32.7,18.4-65.4,26.7-98.4
			c2.2-8.5,4-17.2,5.9-25.7c1.5-6.4-0.4-11.7-4.8-16.4c-2.9-3.1-6.4-5.5-10.3-7.3c-6.2-3-12.8-4.6-19.7-5.3
			c-0.7-0.1-1.5-0.2-2.2-0.2c-0.1,0-0.2-0.1-0.5-0.3c-0.1-0.3-0.4-0.7-0.4-1.1c-0.4-3.9-0.1-16.2,0.4-18.7c0.6-0.1,1.4-0.2,2.1-0.3
			c1.2,0,2.5,0,3.7,0c80,0,159.9,0,239.9,0c10.6,0,21.1,0,31.6,0.8c14.8,1.1,29.3,3.3,43.4,8.2c22,7.6,38.6,21.6,49.5,42.1
			c5.3,10,8.2,20.7,9.5,31.9c0.8,6.9,0.9,13.9,0.6,20.8c-1.4,24.7-9.6,46.5-26.9,64.5c-9,9.3-19.4,16.6-31,22.2
			c-12,5.8-24.6,9.7-37.8,12c-9,1.6-18,2.4-27,2.3c-5-0.1-9.9-0.1-14.9-0.1c-6.5,0-12.9-0.9-19.2-2c-0.7-0.1-1.5-0.2-2.2-0.3
			c-0.4,0-0.7,0.1-1.1,0.2c-0.8,1.1-0.5,2.4-0.5,3.6c0,5.2,0,10.4,0,15.6c0,15.4-0.1,30.8,0,46.2c0,6.3,0.3,12.7,0.7,19
			c0.2,3.4,0.9,6.9,1.7,10.3c1.7,6.8,6,11.2,12.6,13.5c4,1.4,8.1,2.3,12.3,2.8c5.5,0.7,11.1,1.1,16.7,1.7c1.6,0.2,3.2,0.3,4.6,0.8
			c0.5,3.3,0.5,16.2,0,19.6c-0.6,0.1-1.3,0.3-2,0.3c-1.1,0.1-2.2,0-3.4,0c-48.1,0-96.1,0-144.2,0c-1.7,0-3.4-0.1-5.3-0.1
			c-0.2-0.9-0.5-1.6-0.5-2.3c0-5.2,0-10.4,0-15.6c0-0.6,0.1-1.2,0.2-1.9c1.5-0.5,3-0.7,4.4-0.8c4.8-0.5,9.6-0.9,14.4-1.7
			c3.4-0.5,6.8-1.3,10.1-2.4c6.2-2,10.2-6.4,12.1-12.7c1.2-4.1,1.8-8.2,2.1-12.5c0.3-4.8,0.5-9.7,0.5-14.5c0-71.7,0-143.3,0-215
			c0-3-0.1-6-0.8-8.9c-1.5-6.8-5.5-12.2-10.8-16.5c-5.3-4.3-11.3-7.2-17.9-8.7c-9.8-2.2-19.5-2-28.9,1.7c-8.7,3.4-15.6,9-20.4,17.1
			c-2.7,4.5-5,9.2-6.7,14.1c-4.5,12.5-9,25-13.3,37.5c-18.1,53.5-34.9,107.4-51.4,161.4c-8.5,28-16.9,56.1-25.4,84.1
			c-0.4,1.4-1,2.8-1.5,4.2c-8.4,0-16.9,0-25.3,0c-3.4-9.3-6.7-18.7-10.1-28c-21.8-60.3-43.7-120.6-65.5-181c-2.7-7.4-5.3-14.7-8-22
			c-0.3-0.8-0.4-1.9-1.7-2.5c-0.7,1.3-1.1,2.6-1.5,3.9c-11.1,33.6-22.3,67.1-33.4,100.7c-9.3,27.9-18.5,55.8-27.8,83.7
			c-4.6,13.8-9.2,27.5-13.7,41.3c-0.4,1.3-1.2,2.5-0.9,3.9c-8.7,0-17.4,0-26.1,0c0-0.1,0-0.3-0.1-0.4c-10-32.7-20.1-65.4-30.1-98.2
			c-17-55.5-34-111-51-166.5c-2.8-9-5.5-18-8.3-27c-3.3-10.9-10-19-20.1-24.3c-4.5-2.4-9.3-4.1-14.4-4.9c-3.9-0.7-7.9-1-11.8-1.5
			C54.8,372.8,54.8,366.1,54.8,359.4z M644.4,532.8c1.6,0.6,3,1.3,4.6,1.7c11.1,3.1,22.4,4.2,33.9,2.3c12.6-2,23.6-7.4,32.6-16.5
			c6.1-6.2,10.6-13.4,13.7-21.5c3.5-8.7,5.3-17.8,6.2-27.1c1-11.3,1-22.6-0.9-33.8c-1.4-8-3.7-15.7-7.4-22.9
			c-7.8-15.2-19.8-25.2-36.1-30c-9.4-2.8-19.1-3.2-28.8-2.4c-3.5,0.3-6.9,1.1-10.1,2.5c-3.3,1.5-5.4,3.9-6.4,7.3
			c-0.4,1.2-0.7,2.4-0.8,3.6c-0.3,3.1-0.6,6.2-0.6,9.3c0,41.2,0,82.5,0,123.7C644.3,530.2,644.4,531.4,644.4,532.8z"/>
		<path class="st0" d="M969.2,695.5c-1.6,0-3.2,0.1-4.8,0.1c-46.8,0-93.6,0-140.4,0c-1.6,0-3.2-0.1-4.8-0.1
			c-1.2-2.3-0.6-4.5-0.7-6.7c-0.1-2.1-0.1-4.2,0-6.3c0-2.2-0.2-4.4,0.3-6.8c1.6-0.5,3.2-0.7,4.7-0.8c4.8-0.5,9.6-0.9,14.4-1.7
			c3.2-0.5,6.3-1.3,9.4-2.2c6.5-2.1,10.7-6.5,12.6-13.1c1.2-4.3,1.8-8.7,2.1-13.2c0.3-5.5,0.4-10.9,0.4-16.4c0-67.1,0-134.1,0-201.2
			c0-7.6,0-15.1-1-22.7c-0.4-3.2-1.1-6.4-2.3-9.4c-1.8-4.5-4.9-7.7-9.3-9.7c-3.2-1.4-6.5-2.4-10-2.9c-6.3-0.9-12.6-1.5-18.8-2.3
			c-0.6-0.1-1.2-0.2-2-0.2c-1.1-3.3-0.5-6.7-0.5-10c0-3.3-0.3-6.7,0.3-10.1c0.8-0.1,1.5-0.3,2.2-0.3c1.2,0,2.5,0,3.7,0
			c47.4,0,94.9,0,142.3,0c0.7,0,1.5-0.1,2.2-0.1c0,6.7,0,13.4,0,20.1c-0.7,0.2-1.4,0.5-2.1,0.6c-5.1,0.6-10.1,1-15.2,1.6
			c-4.2,0.5-8.3,1.3-12.3,2.8c-5.6,2.1-9.3,5.9-11.1,11.6c-1,3.2-1.6,6.5-1.9,9.8c-0.7,6.1-0.7,12.1-0.7,18.2
			c0,68.9,0,137.7,0,206.6c0,6.2,0.1,12.4,0.8,18.6c0.4,3.6,1,7.1,2.2,10.5c1.8,4.8,4.9,8.3,9.7,10.2c2.4,1,4.9,1.7,7.4,2.3
			c7.6,1.7,15.5,2.1,23.2,2.9C969.2,682,969.2,688.7,969.2,695.5z"/>
	</g>
</g>
</svg>
