<?xml version="1.0" encoding="utf-8"?>
<!-- Generator: Adobe Illustrator 19.2.0, SVG Export Plug-In . SVG Version: 6.00 Build 0)  -->
<svg version="1.1" id="Layer_1" xmlns="http://www.w3.org/2000/svg" xmlns:xlink="http://www.w3.org/1999/xlink" x="0px" y="0px"
	 viewBox="0 0 1024 1024" style="enable-background:new 0 0 1024 1024;" xml:space="preserve">
<style type="text/css">
	.st0{fill:#AC2B37;}
</style>
<g>
	<path class="st0" d="M111.8,297.3c10.6-2.2,27.3-3.9,44.3-3.9c24.2,0,39.8,4.2,51.6,13.7c9.8,7.2,15.6,18.4,15.6,33.2
		c0,18.1-12,34-31.8,41.2v0.6c17.8,4.5,38.7,19.2,38.7,47.1c0,16.2-6.4,28.4-15.9,37.6c-13.1,12-34.3,17.6-64.9,17.6
		c-16.7,0-29.5-1.1-37.6-2.2V297.3z M136.1,374.2h22c25.6,0,40.7-13.4,40.7-31.5c0-22-16.7-30.7-41.2-30.7
		c-11.1,0-17.6,0.8-21.5,1.7V374.2z M136.1,464.2c4.7,0.8,11.7,1.1,20.3,1.1c25.1,0,48.2-9.2,48.2-36.5c0-25.6-22-36.2-48.5-36.2
		h-20.1V464.2z"/>
	<path class="st0" d="M336.7,482.6l-2-17h-0.8c-7.5,10.6-22,20.1-41.2,20.1c-27.3,0-41.2-19.2-41.2-38.7c0-32.6,29-50.4,81.1-50.2
		V394c0-11.1-3.1-31.2-30.7-31.2c-12.5,0-25.6,3.9-35.1,10l-5.6-16.2c11.1-7.2,27.3-12,44.3-12c41.2,0,51.3,28.1,51.3,55.2v50.4
		c0,11.7,0.6,23.1,2.2,32.3H336.7z M333.1,413.7c-26.8-0.6-57.1,4.2-57.1,30.4c0,15.9,10.6,23.4,23.1,23.4
		c17.6,0,28.7-11.2,32.6-22.6c0.8-2.5,1.4-5.3,1.4-7.8V413.7z"/>
	<path class="st0" d="M396.3,384.2c0-13.9-0.3-25.4-1.1-36.5h21.7l1.4,22.3h0.6c6.7-12.8,22.3-25.4,44.6-25.4
		c18.7,0,47.7,11.1,47.7,57.4v80.5h-24.5v-77.8c0-21.7-8.1-39.8-31.2-39.8c-16.2,0-28.7,11.4-32.9,25.1c-1.1,3.1-1.7,7.2-1.7,11.4
		v81.1h-24.5V384.2z"/>
	<path class="st0" d="M551,384.2c0-13.9-0.3-25.4-1.1-36.5h21.7L573,370h0.6c6.7-12.8,22.3-25.4,44.6-25.4
		c18.7,0,47.7,11.1,47.7,57.4v80.5h-24.5v-77.8c0-21.7-8.1-39.8-31.2-39.8c-16.2,0-28.7,11.4-32.9,25.1c-1.1,3.1-1.7,7.2-1.7,11.4
		v81.1H551V384.2z"/>
	<path class="st0" d="M719.3,419.6c0.6,33.2,21.7,46.8,46.3,46.8c17.6,0,28.1-3.1,37.3-7L807,477c-8.6,3.9-23.4,8.4-44.9,8.4
		c-41.5,0-66.3-27.3-66.3-68c0-40.7,24-72.7,63.3-72.7c44,0,55.7,38.7,55.7,63.5c0,5-0.6,8.9-0.8,11.4H719.3z M791.2,402
		c0.3-15.6-6.4-39.9-34-39.9c-24.8,0-35.7,22.9-37.6,39.9H791.2z"/>
	<path class="st0" d="M845.2,389.8c0-15.9-0.3-29.5-1.1-42.1h21.5l0.8,26.5h1.1c6.1-18.1,20.9-29.5,37.3-29.5c2.8,0,4.7,0.3,7,0.8
		v23.1c-2.5-0.6-5-0.8-8.4-0.8c-17.3,0-29.5,13.1-32.9,31.5c-0.6,3.3-1.1,7.2-1.1,11.4v71.9h-24.2V389.8z"/>
	<path class="st0" d="M292.8,727.9l-47.7-187.8h25.6l22.3,95c5.6,23.4,10.6,46.8,13.9,64.9h0.6c3.1-18.7,8.9-41,15.3-65.2l25.1-94.7
		h25.4l22.9,95.3c5.3,22.3,10.3,44.6,13.1,64.4h0.6c3.9-20.6,9.2-41.5,15-64.9l24.8-94.7h24.8l-53.2,187.8h-25.4l-23.7-97.8
		c-5.9-24-9.8-42.4-12.3-61.3h-0.6c-3.3,18.7-7.5,37.1-14.5,61.3l-26.8,97.8H292.8z"/>
	<path class="st0" d="M501.5,664.9c0.6,33.2,21.7,46.8,46.3,46.8c17.6,0,28.1-3.1,37.3-7l4.2,17.6c-8.6,3.9-23.4,8.4-44.9,8.4
		c-41.5,0-66.3-27.3-66.3-68c0-40.7,24-72.7,63.3-72.7c44,0,55.7,38.7,55.7,63.5c0,5-0.6,8.9-0.8,11.4H501.5z M573.4,647.4
		c0.3-15.6-6.4-39.9-34-39.9c-24.8,0-35.7,22.9-37.6,39.9H573.4z"/>
	<path class="st0" d="M626.3,727.9c0.6-9.2,1.1-22.8,1.1-34.8V530h24.2v84.7h0.6c8.6-15.1,24.2-24.8,46-24.8
		c33.4,0,57.1,27.9,56.9,68.8c0,48.2-30.4,72.2-60.5,72.2c-19.5,0-35.1-7.5-45.1-25.4h-0.8l-1.1,22.3H626.3z M651.7,673.8
		c0,3.1,0.6,6.1,1.1,8.9c4.7,17,18.9,28.7,36.8,28.7c25.6,0,41-20.9,41-51.8c0-27-13.9-50.2-40.1-50.2c-16.7,0-32.3,11.4-37.3,30.1
		c-0.6,2.8-1.4,6.1-1.4,10V673.8z"/>
</g>
</svg>
