<?xml version="1.0" encoding="utf-8"?>
<!-- Generator: Adobe Illustrator 19.2.0, SVG Export Plug-In . SVG Version: 6.00 Build 0)  -->
<svg version="1.1" id="Layer_1" xmlns="http://www.w3.org/2000/svg" xmlns:xlink="http://www.w3.org/1999/xlink" x="0px" y="0px"
	 viewBox="0 0 1024 1024" style="enable-background:new 0 0 1024 1024;" xml:space="preserve">
<style type="text/css">
	.st0{fill-rule:evenodd;clip-rule:evenodd;fill:#AC2B37;}
	.st1{clip-path:url(#SVGID_2_);fill:#AC2B37;}
	.st2{fill:#AC2B37;}
</style>
<g>
	<path class="st0" d="M256.8,444.9l16.7,0v19.7c5-7.8,10.3-13.6,15.8-17.5c5.5-3.9,11.3-5.8,17.3-5.8c4.5,0,9.4,1.5,14.5,4.6
		l-8.5,14.6c-3.4-1.6-6.3-2.4-8.7-2.4c-5.5,0-10.7,2.4-15.8,7.1c-5.1,4.8-8.9,12.2-11.6,22.2c-2,7.7-3,23.3-3,46.7l0,45.7h-16.7
		L256.8,444.9"/>
	<path class="st0" d="M384.6,457.8c-9.3,0-17.9,2.4-25.9,7.1c-8,4.8-14.2,11.3-18.7,19.7c-4.5,8.4-6.8,17.5-6.8,27.3
		c0,14.8,4.7,27.1,14.1,36.7c9.4,9.7,21.5,14.5,36.4,14.5c15.1,0,27.2-4.8,36.3-14.4c9.2-9.6,13.7-22.2,13.7-37.9
		c0-10.2-2.1-19.3-6.3-27.2c-4.2-8-10.2-14.3-17.9-18.9C401.8,460.2,393.5,457.8,384.6,457.8 M432.9,444.5l16.4,0l0.1,107.6
		c0,18.9-1.6,32.8-4.7,41.6c-4.3,12.4-11.7,22-22.3,28.7c-10.6,6.7-23.4,10.1-38.3,10.1c-10.9,0-20.7-1.6-29.4-4.9
		c-8.7-3.3-15.8-7.7-21.2-13.2c-5.5-5.5-10.5-13.6-15.1-24.2h17.8c4.9,8.9,11.1,15.6,18.8,19.8c7.6,4.3,17.1,6.4,28.5,6.4
		c11.2,0,20.6-2.2,28.3-6.6c7.7-4.4,13.2-10,16.4-16.6c3.3-6.7,4.9-17.5,4.9-32.4v-6.9c-6.2,8.3-13.7,14.6-22.6,19.1
		c-8.9,4.4-18.4,6.6-28.3,6.7c-11.7,0-22.7-3.1-33-9.2c-10.3-6.2-18.3-14.4-23.9-24.9c-5.6-10.4-8.5-21.9-8.5-34.4
		c0-12.5,2.9-24.1,8.8-35c5.8-10.8,13.9-19.4,24.3-25.7c10.3-6.3,21.3-9.4,32.7-9.4c9.5,0,18.4,2.1,26.7,6.3
		c8.2,4.2,16.2,11.1,23.8,20.7L432.9,444.5z"/>
	<g>
		<defs>
			<path id="SVGID_1_" d="M514.3,392c-13.3,0-24.6,4.5-33.7,13.6c-9.1,9.1-13.6,19.9-13.6,32.6c0,8.8,2.7,17.6,8.2,26.4
				c5.5,8.8,17.6,21.3,36.4,37.5c9.9,8.5,16.2,14.8,19.1,19c2.9,4.1,4.3,8.3,4.3,12.4c0,4.5-1.9,8.5-5.7,12
				c-3.8,3.5-8.6,5.2-14.2,5.2c-10.8,0-20.3-8-28.6-24.2L459,544.2c6.5,13.7,14.3,23.7,23.4,30c9.1,6.4,19.8,9.6,32,9.5
				c15.7,0,28.4-4.9,38.2-14.6c9.8-9.8,14.6-22.2,14.6-37.1c0-7.7-1.4-14.8-4.2-21.3c-2.8-6.5-7.5-13.3-14.1-20.4
				c-2.7-2.9-10.3-9.9-22.8-21c-13.4-12-21.4-19.8-24-23.4c-2-2.7-2.9-5.6-2.9-8.7c0-3.1,1.4-5.8,4.1-8.3c2.7-2.4,6.2-3.7,10.6-3.7
				c8.8,0,17.5,6.3,26,18.9l24.2-22.7c-9.1-11.2-17.5-18.9-25.3-23.1c-7.7-4.2-15.9-6.3-24.4-6.3C514.4,392,514.3,392,514.3,392"/>
		</defs>
		<use xlink:href="#SVGID_1_"  style="overflow:visible;fill:#AC2B37;"/>
		<clipPath id="SVGID_2_">
			<use xlink:href="#SVGID_1_"  style="overflow:visible;"/>
		</clipPath>
		<rect x="459" y="392" class="st1" width="108.2" height="191.8"/>
	</g>
	<polyline class="st2" points="662.7,444.1 626.3,528.9 593.2,444.1 560.5,444.2 609,569.1 582.9,628.6 615.8,628.6 695.5,444.1 
		662.7,444.1 	"/>
	<path class="st2" d="M768.6,440.6c-6.1,0-12.2,1.3-18.1,3.8c-5.9,2.5-12.4,7-19.7,13.5l0-13.8l-31.9,0l0.1,135.1l31.9,0l0-54.2
		c0-14.1,0.5-23.2,1.4-27.4c1.8-8.1,5-14.4,9.6-19c4.6-4.6,10.2-6.9,16.6-6.9c5,0,9.2,1.4,12.6,4.2c3.4,2.8,5.8,6.8,7.1,12.1
		c1.4,5.3,2.1,16,2.1,32.1l0,59.2l31.6,0l0-89.3c0-15.5-3.7-27.3-11.1-35.2C792,445.2,781.3,440.6,768.6,440.6
		C768.7,440.6,768.7,440.6,768.6,440.6"/>
	<path class="st2" d="M890.6,440.5c-13.6,0-26,3.2-37,9.5c-11,6.3-19.6,14.9-25.8,26c-6.2,11-9.2,23.1-9.2,36.1
		c0,18.9,6.3,35.3,19,49.4c12.7,14.1,30.2,21.1,52.6,21.1c24.9,0,44.2-9.4,57.8-28.3l-25.2-18.3c-8,10.3-19.1,15.5-33.4,15.5
		c-11.6,0-20.9-3.6-28-10.9c-7.1-7.3-10.7-16.6-10.7-28.1c0-11.8,3.7-21.5,11.1-29.1c7.4-7.6,17-11.4,29-11.4
		c6.6,0,12.3,1.1,17.2,3.2c4.3,1.9,8.7,5.2,13.1,9.7c-7.3,4.2-12.6,7.3-12.6,7.3l52,29.6c0,0,0-57.9,1.1-61.3
		c-0.9,0.9-6.4,4.4-13.6,8.7c-6.2-8.8-13.9-15.7-23.3-20.7c-10-5.3-21.3-8-33.9-8C890.7,440.5,890.6,440.5,890.6,440.5"/>
	<path class="st0" d="M151.8,410.6c-12.7,0-24.8,3.5-36.2,10.6c-11.4,7-20.3,16.5-26.7,28.5c-6.4,11.9-9.6,25.2-9.6,39.9
		c0,21.7,7.1,40,21.3,55c14.2,14.9,31.3,22.4,51.3,22.4c13.4,0,25.7-3.5,37.1-10.3c11.4-6.9,20.2-16.3,26.6-28.2
		c6.4-11.9,9.5-25.2,9.5-39.8c0-14.5-3.2-27.6-9.6-39.3c-6.4-11.7-15.3-21.1-26.9-28.1C177.1,414.1,164.8,410.6,151.8,410.6
		 M151.1,392.9c26.1,0,47.9,9.2,65.5,27.6c17.6,18.5,26.4,41.1,26.4,68.1c0,26.7-8.7,49.4-26.3,68c-17.5,18.6-38.9,27.9-64.1,28
		c-25.5,0-47.1-9.2-64.6-27.8c-17.6-18.5-26.4-40.9-26.4-67.3c0-17.6,4-33.8,12-48.8c8-15,18.9-26.7,32.7-35.2
		C120,397.1,135,392.9,151.1,392.9"/>
</g>
</svg>
